<svg xmlns="http://www.w3.org/2000/svg" xmlns:xlink="http://www.w3.org/1999/xlink" width="500" zoomAndPan="magnify" viewBox="0 0 375 374.999991" height="500" preserveAspectRatio="xMidYMid meet" version="1.0"><defs><g/><clipPath id="4c567a9e27"><path d="M 40 78.355469 L 335 78.355469 L 335 220.855469 L 40 220.855469 Z M 40 78.355469 " clip-rule="nonzero"/></clipPath></defs><g clip-path="url(#4c567a9e27)"><path fill="#1a1a1a" d="M 161.890625 97.742188 L 204.28125 97.742188 C 204.828125 93.609375 205.421875 92.667969 221.617188 92.667969 C 221.617188 92.667969 219.796875 82.3125 207.917969 78.429688 L 167.261719 78.429688 C 163.242188 84.972656 162.101562 91.558594 161.890625 97.742188 Z M 250.960938 177.324219 L 250.960938 181.941406 C 250.960938 188.238281 247.246094 193.664062 241.890625 196.160156 L 133.203125 196.160156 C 127.84375 193.664062 124.128906 188.238281 124.128906 181.941406 L 124.128906 177.324219 Z M 271.71875 152.523438 L 271.71875 158.582031 C 271.71875 165.636719 265.996094 171.355469 258.9375 171.355469 L 116.164062 171.355469 C 109.105469 171.355469 103.382812 165.636719 103.382812 158.578125 L 103.382812 152.523438 Z M 313.585938 104.140625 L 243.042969 104.140625 L 228.71875 121.082031 L 304.035156 121.082031 C 304.035156 121.082031 315.847656 116.308594 313.582031 104.140625 Z M 263.617188 79.613281 L 249.292969 96.554688 L 324.605469 96.554688 C 324.609375 96.554688 336.425781 91.785156 334.15625 79.613281 L 263.613281 79.613281 Z M 50.484375 96.554688 L 125.800781 96.554688 L 111.476562 79.613281 L 40.9375 79.613281 C 38.667969 91.785156 50.484375 96.554688 50.484375 96.554688 Z M 71.058594 121.082031 L 146.375 121.082031 L 132.050781 104.140625 L 61.507812 104.140625 C 59.242188 116.308594 71.058594 121.082031 71.058594 121.082031 Z M 91.632812 145.609375 L 283.460938 145.609375 C 283.460938 145.609375 295.277344 140.835938 293.007812 128.667969 L 222.46875 128.667969 L 216.152344 136.136719 C 214.484375 134.503906 211.484375 131.433594 209.613281 128.667969 L 161.375 128.667969 C 161.054688 131.851562 160.632812 134.855469 160.078125 137.484375 L 152.625 128.667969 L 82.082031 128.667969 C 79.8125 140.835938 91.628906 145.609375 91.628906 145.609375 Z M 144.355469 201.949219 C 144.292969 202.582031 144.261719 203.226562 144.261719 203.875 C 144.261719 211.234375 148.355469 217.617188 154.34375 220.789062 L 220.75 220.789062 C 226.738281 217.617188 230.832031 211.234375 230.832031 203.875 C 230.832031 203.226562 230.804688 202.582031 230.742188 201.949219 Z M 200.761719 104.140625 L 161.921875 104.140625 C 162.007812 106.792969 162.144531 109.335938 162.144531 111.71875 C 162.144531 114.757812 162.074219 117.933594 161.921875 121.085938 L 206.472656 121.085938 Z M 200.761719 104.140625 " fill-opacity="1" fill-rule="evenodd"/></g><g fill="#1a1a1a" fill-opacity="1"><g transform="translate(116.103129, 281.323894)"><g><path d="M 6.375 -26.5 L 4.1875 -26.5 L 6.375 -36.296875 L 22.046875 -36.296875 L 30.640625 0 L 19.8125 0 L 18.5625 -6.265625 L 11.703125 -6.265625 L 10.390625 0 L -0.109375 0 Z M 17.53125 -14.375 L 15.234375 -24.484375 L 12.890625 -14.375 Z M 17.53125 -14.375 "/></g></g></g><g fill="#1a1a1a" fill-opacity="1"><g transform="translate(146.634024, 281.323894)"><g><path d="M 12.578125 -0.046875 C 11.554688 -0.0859375 10.753906 -0.113281 10.171875 -0.125 C 9.597656 -0.144531 9.128906 -0.179688 8.765625 -0.234375 C 8.398438 -0.296875 8.097656 -0.367188 7.859375 -0.453125 C 7.628906 -0.546875 7.347656 -0.664062 7.015625 -0.8125 C 5.097656 -1.71875 3.613281 -3.257812 2.5625 -5.4375 C 1.507812 -7.613281 0.984375 -10.242188 0.984375 -13.328125 C 0.984375 -15.359375 1.207031 -17.195312 1.65625 -18.84375 C 2.113281 -20.5 2.773438 -21.90625 3.640625 -23.0625 C 4.515625 -24.226562 5.566406 -25.117188 6.796875 -25.734375 C 8.035156 -26.359375 9.414062 -26.671875 10.9375 -26.671875 C 11.695312 -26.671875 12.375 -26.597656 12.96875 -26.453125 C 13.570312 -26.304688 14.273438 -26.050781 15.078125 -25.6875 L 15.078125 -28.296875 L 13.0625 -28.296875 L 15.078125 -37.171875 L 24 -37.171875 L 24 -8.703125 L 25.90625 -8.703125 L 24 0 L 15.078125 0 L 15.078125 -8 L 13.28125 0 Z M 15.078125 -13.390625 C 15.078125 -14.148438 15.066406 -14.753906 15.046875 -15.203125 C 15.023438 -15.660156 14.988281 -16.039062 14.9375 -16.34375 C 14.882812 -16.65625 14.800781 -16.898438 14.6875 -17.078125 C 14.582031 -17.265625 14.457031 -17.445312 14.3125 -17.625 C 13.914062 -17.957031 13.476562 -18.125 13 -18.125 C 12.132812 -18.125 11.445312 -17.707031 10.9375 -16.875 C 10.425781 -16.039062 10.171875 -14.929688 10.171875 -13.546875 C 10.171875 -11.804688 10.476562 -10.554688 11.09375 -9.796875 C 11.71875 -9.035156 12.71875 -8.65625 14.09375 -8.65625 C 14.164062 -8.65625 14.300781 -8.65625 14.5 -8.65625 C 14.695312 -8.65625 14.890625 -8.671875 15.078125 -8.703125 Z M 15.078125 -13.390625 "/></g></g></g><g fill="#1a1a1a" fill-opacity="1"><g transform="translate(172.865559, 281.323894)"><g><path d="M 2.28125 -17.578125 L 0.265625 -17.578125 L 2.28125 -26.5 L 11.203125 -26.5 L 11.203125 -8.703125 L 13.109375 -8.703125 L 11.203125 0 L 2.28125 0 Z M 3.8125 -37.390625 L 12.6875 -37.390625 L 10.78125 -28.515625 L 1.84375 -28.515625 Z M 3.8125 -37.390625 "/></g></g></g><path stroke-linecap="butt" transform="matrix(0.314013, 0, 0, 0.314013, 189.639762, 226.057689)" fill="none" stroke-linejoin="miter" d="M 7.280024 85.874754 L 0.848653 85.874754 L 7.280024 57.59911 L 35.717385 57.59911 L 35.717385 117.061308 L 41.091375 91.584618 C 44.785992 91.584618 47.87106 91.684136 50.359018 91.883173 C 52.834537 92.04489 54.99906 92.331005 56.827709 92.729078 C 58.693678 93.114712 60.310851 93.637183 61.691667 94.296492 C 63.072484 94.906042 64.453301 95.739508 65.846557 96.78445 C 70.722955 100.36711 74.430013 105.343026 76.96773 111.724638 C 79.505447 118.068931 80.774306 125.570125 80.774306 134.240659 C 80.774306 140.69691 80.015479 146.531172 78.497824 151.755884 C 76.99261 156.943276 74.902725 161.384281 72.19085 165.078899 C 69.478976 168.773517 66.182432 171.609789 62.288777 173.587716 C 58.420003 175.528323 54.066076 176.511067 49.214558 176.511067 C 46.67684 176.511067 44.363039 176.249831 42.273155 175.752239 C 40.208149 175.204889 38.031186 174.358983 35.717385 173.202082 L 35.717385 176.001035 L 7.280024 176.001035 Z M 35.717385 138.047235 C 35.717385 141.517936 35.792024 143.769538 35.966181 144.814481 C 36.140338 145.859423 36.62549 146.779968 37.446516 147.563674 C 38.491458 148.832533 40.096191 149.466962 42.273155 149.466962 C 45.171626 149.466962 47.435668 148.198104 49.040401 145.660386 C 50.682453 143.122669 51.491039 139.477811 51.491039 134.73825 C 51.491039 129.214984 50.570495 125.346209 48.704526 123.144366 C 46.838558 120.954963 43.666411 119.847821 39.188087 119.847821 C 38.590977 119.847821 38.056066 119.847821 37.570914 119.847821 C 37.123081 119.847821 36.501092 119.91002 35.717385 120.021978 Z M 120.27064 175.665161 C 114.97129 175.441245 110.891038 174.881454 108.042326 174.010669 C 105.218494 173.139883 102.543939 171.54759 100.006222 169.233789 C 95.714494 165.427213 92.467709 160.451297 90.278306 154.33092 C 88.101342 148.210543 87.019081 141.157182 87.019081 133.183277 C 87.019081 126.826544 87.765468 121.066921 89.258243 115.867088 C 90.751018 110.654816 92.878222 106.201371 95.652295 102.494314 C 98.438808 98.799696 101.822431 95.988303 105.803164 94.035256 C 109.783897 92.05733 114.200023 91.074586 119.051541 91.074586 C 121.726096 91.074586 124.126975 91.373141 126.24174 91.957811 C 128.381384 92.530042 130.608106 93.450586 132.921907 94.719445 L 132.921907 91.584618 L 160.301886 91.584618 L 160.301886 148.285182 L 166.397383 148.285182 L 160.301886 176.001035 L 131.914284 176.001035 L 131.914284 150.524344 L 126.154661 176.001035 Z M 131.914284 131.989057 C 131.914284 129.911612 131.864525 128.194921 131.777446 126.876303 C 131.727687 125.545245 131.615729 124.450544 131.441572 123.567319 C 131.279855 122.696533 131.080818 122.012345 130.856902 121.502313 C 130.620546 120.967402 130.272232 120.469811 129.79952 120.021978 C 128.530661 118.641162 126.975687 117.944533 125.134598 117.944533 C 122.484923 117.944533 120.345279 119.300471 118.703227 122.012345 C 117.098494 124.711779 116.289907 128.269559 116.289907 132.673245 C 116.289907 143.197308 120.395038 148.459339 128.6053 148.459339 C 128.829216 148.459339 129.289488 148.459339 129.961237 148.459339 C 130.670305 148.459339 131.317174 148.39714 131.914284 148.285182 Z M 175.416231 144.640324 C 179.334765 147.302439 182.569111 149.205727 185.106828 150.362627 C 187.644545 151.519528 189.896147 152.091758 191.874074 152.091758 C 194.747665 152.091758 196.190681 150.997056 196.190681 148.795214 C 196.190681 147.750271 195.693089 146.804847 194.710346 145.958941 C 193.715163 145.088156 191.737236 143.881496 188.739247 142.363842 C 177.170242 136.716177 171.398179 128.468596 171.398179 117.608659 C 171.398179 113.540848 172.107247 109.82135 173.550263 106.437727 C 175.018158 103.016785 177.045844 100.105874 179.64576 97.680115 C 182.245676 95.254356 185.330744 93.351068 188.913404 91.957811 C 192.496063 90.552115 196.427037 89.843047 200.718765 89.843047 C 202.547414 89.843047 204.326304 89.979885 206.042995 90.22868 C 207.797006 90.452597 209.588335 90.788471 211.416985 91.248743 C 213.282953 91.696576 215.211121 92.331005 217.213927 93.152031 C 219.254052 93.960618 221.530534 94.955801 224.080691 96.112701 L 218.918178 120.51957 C 212.312649 116.712994 207.336733 114.809706 203.97799 114.809706 C 203.069885 114.809706 202.298618 115.108261 201.651749 115.705371 C 201.02976 116.265162 200.718765 117.011549 200.718765 117.944533 C 200.718765 118.504324 200.768524 118.977036 200.880482 119.33779 C 201.00488 119.673664 201.427833 120.121497 202.16178 120.656408 C 202.920608 121.166439 204.102388 121.875507 205.707121 122.808491 C 207.349173 123.716596 209.662974 125.035214 212.648524 126.789224 C 221.903728 131.864659 226.53133 139.428051 226.53133 149.466962 C 226.53133 153.646732 225.735183 157.440868 224.15533 160.84937 C 222.612796 164.232993 220.423393 167.218543 217.59956 169.78114 C 214.775728 172.318857 211.416985 174.284344 207.53577 175.665161 C 203.666995 177.045978 199.425027 177.730166 194.797425 177.730166 C 186.724001 177.730166 178.115666 175.889077 168.98486 172.194459 Z M 252.493172 142.189685 C 257.344691 142.189685 261.163706 143.806858 263.92534 147.053643 C 266.711853 150.300428 268.117549 154.691674 268.117549 160.214941 C 268.117549 165.775527 266.637214 170.179213 263.664104 173.413559 C 260.740753 176.635464 256.847099 178.240197 251.995581 178.240197 C 247.144063 178.240197 243.262848 176.635464 240.351937 173.413559 C 237.478345 170.179213 236.03533 165.887486 236.03533 160.550816 C 236.03533 155.027549 237.528105 150.586543 240.526094 147.2278 C 243.536523 143.869057 247.529696 142.189685 252.493172 142.189685 Z M 252.493172 142.189685 " stroke="#1a1a1a" stroke-width="4.658056" stroke-opacity="1" stroke-miterlimit="4"/></svg>